<svg xmlns="http://www.w3.org/2000/svg" width="86.263" height="96.562" viewBox="0 0 86.263 96.562">
  <g id="그룹_38" data-name="그룹 38" transform="translate(-387.863 -167.038)">
    <path id="패스_14" data-name="패스 14" d="M403.709,240.108s-14.685-24.531,2.543-47.041C406.252,193.067,420.247,212.22,403.709,240.108Z" fill="#b1dac8"/>
    <path id="패스_15" data-name="패스 15" d="M421.384,219.775s23.213-15.966,49.518-6.194C470.9,213.581,443.927,236.391,421.384,219.775Z" fill="#b1dac8"/>
    <path id="패스_16" data-name="패스 16" d="M438.4,204.58s-5.654-26.428,14.352-37.542C452.748,167.038,459.054,187.66,438.4,204.58Z" fill="#b1dac8"/>
    <path id="패스_17" data-name="패스 17" d="M389.209,262.254s25.379-49.646,77.247-75.58" fill="none" stroke="#404f1e" stroke-linecap="round" stroke-miterlimit="10" stroke-width="2"/>
    <line id="선_8" data-name="선 8" y1="28.518" x2="6.003" transform="translate(417.662 195.105)" fill="none" stroke="#404f1e" stroke-linecap="round" stroke-miterlimit="10" stroke-width="1"/>
    <line id="선_9" data-name="선 9" y1="5.115" x2="33.479" transform="translate(435.756 201.586)" fill="none" stroke="#404f1e" stroke-linecap="round" stroke-miterlimit="10" stroke-width="1"/>
    <line id="선_10" data-name="선 10" y1="6.413" x2="23.509" transform="translate(397.875 241.77)" fill="none" stroke="#404f1e" stroke-linecap="round" stroke-miterlimit="10" stroke-width="1"/>
    <path id="패스_18" data-name="패스 18" d="M426.889,193.111a3.224,3.224,0,1,1-3.224-3.224A3.225,3.225,0,0,1,426.889,193.111Z" fill="#f9931f"/>
    <circle id="타원_2" data-name="타원 2" cx="3.224" cy="3.224" r="3.224" transform="translate(466.011 182.585)" fill="#f9931f"/>
    <path id="패스_19" data-name="패스 19" d="M426.889,241.77a3.224,3.224,0,1,1-3.224-3.225A3.225,3.225,0,0,1,426.889,241.77Z" fill="#f9931f"/>
    <circle id="타원_3" data-name="타원 3" cx="3.224" cy="3.224" r="3.224" transform="translate(467.678 198.362)" fill="#f9931f"/>
    <path id="패스_20" data-name="패스 20" d="M449.135,173.5s-3.51,17.16-10.739,31.08" fill="none" stroke="#404f1e" stroke-linecap="round" stroke-miterlimit="10" stroke-width="1"/>
    <path id="패스_21" data-name="패스 21" d="M462.333,215.833s-22.119-1.539-41.892,4.9" fill="none" stroke="#404f1e" stroke-linecap="round" stroke-miterlimit="10" stroke-width="1"/>
    <path id="패스_22" data-name="패스 22" d="M406.525,201.586s2.728,19.961-2.815,38.521" fill="none" stroke="#404f1e" stroke-linecap="round" stroke-miterlimit="10" stroke-width="1"/>
    <path id="패스_23" data-name="패스 23" d="M409.63,232.681s7.648-7.014,17.259-2.681C426.889,230,420.26,237.891,409.63,232.681Z" fill="#b1dac8"/>
    <path id="패스_24" data-name="패스 24" d="M394.942,252.593s-7.857-5.26-5.733-17.093C389.209,235.5,398.05,239.685,394.942,252.593Z" fill="#b1dac8"/>
    <path id="패스_25" data-name="패스 25" d="M448.133,204.81s.367-6.933,11.534-9.705C459.667,195.1,461.451,202.144,448.133,204.81Z" fill="#b1dac8"/>
  </g>
</svg>
