<svg xmlns="http://www.w3.org/2000/svg" width="110.059" height="100.502" viewBox="0 0 110.059 100.502">
  <g id="그룹_43" data-name="그룹 43" transform="translate(-25.821 -245.075)">
    <g id="그룹_39" data-name="그룹 39">
      <path id="패스_26" data-name="패스 26" d="M97.63,326.082s-17.972-21.092-30.255-29.7S39.182,275.275,39.2,266.841s6.348-10.268,15.646-4.565,29.924,31.776,32.934,38.807c0,0-.925-29.738,3.805-41.973,3.89-10.061,9.988-17.364,15.407-12.482,4.412,3.975,3.338,22.595.783,34.115C103.129,301.681,97.63,326.082,97.63,326.082Z" fill="#d2445b"/>
      <path id="패스_27" data-name="패스 27" d="M39.262,265.5s32.5,24.412,58.368,60.581c0,0-21.158-42.82-55.269-66.326" fill="none" stroke="#f17c78" stroke-linecap="round" stroke-miterlimit="10" stroke-width="0.75"/>
      <path id="패스_28" data-name="패스 28" d="M105.412,245.552s1.6,33.361-7.782,80.53c0,0-7.1-43.671.886-78.626" fill="none" stroke="#f17c78" stroke-linecap="round" stroke-miterlimit="10" stroke-width="0.75"/>
    </g>
    <g id="그룹_40" data-name="그룹 40">
      <path id="패스_29" data-name="패스 29" d="M97.63,326.082s-13.079-19.687-24.316-37.908S60,255.193,67.492,250.743s18.437,1.424,22.564,17.418S99.989,311.781,97.63,326.082Z" fill="#f9a18d"/>
      <path id="패스_30" data-name="패스 30" d="M63.981,254.986s14.4,37.969,32.835,69.867c0,0-4.316-42.353-21.066-74.853" fill="none" stroke="#d2445b" stroke-linecap="round" stroke-miterlimit="10" stroke-width="0.75"/>
    </g>
    <g id="그룹_41" data-name="그룹 41">
      <path id="패스_31" data-name="패스 31" d="M96.231,324.853s-23.677-15.982-40.76-20.69-32.118-8.175-29.31-14.265,10.6-6.706,20.306-6.7S90.384,300.024,96.231,324.853Z" fill="#f17c78"/>
      <path id="패스_32" data-name="패스 32" d="M26.679,293.51s41.08,3.653,70.951,32.572c0,0-28.143-38.948-67.762-40.265" fill="none" stroke="#f9a18d" stroke-linecap="round" stroke-miterlimit="10" stroke-width="0.75"/>
    </g>
    <g id="그룹_42" data-name="그룹 42">
      <path id="패스_33" data-name="패스 33" d="M97.849,324.513s-5.562-28.72,1.924-45.366,18.3-27.18,24.89-26.222,8.956,4.293,4.44,12.906S106.161,298.242,97.849,324.513Z" fill="#f17c78"/>
      <path id="패스_34" data-name="패스 34" d="M131.091,256.63s-26.582,37.783-33.461,69.452c0,0-2.8-48.231,27.033-73.157" fill="none" stroke="#f9a18d" stroke-linecap="round" stroke-miterlimit="10" stroke-width="0.75"/>
    </g>
    <path id="패스_35" data-name="패스 35" d="M97.128,329.773s-8.045-5.462-14.534-7.164S79.427,318.48,84,318.383s11.221,2.338,11.221,2.338-2.791-9.632.48-11.086,4.119,5.01,4.014,9.375c0,0,4.728-7.891,7.948-9.589s1.6,3.946-.859,8.069-5.495,9.1-5.033,11.306,7.5,15.029,6.922,15.917-4.546,1.466-5.151-.2S100.255,333.714,97.128,329.773Z" fill="#404b27"/>
    <path id="패스_36" data-name="패스 36" d="M105.515,341.006S104,324,111.5,315s2.825,3.792,2.825,3.792,4.283-12.292,17.1-17.042a29.227,29.227,0,0,1-5.179,28s6.752-5.337,9.376-3.668S120.03,342.262,105.515,341.006Z" fill="#404b27"/>
    <path id="패스_37" data-name="패스 37" d="M127,309.111s-7.97,21.651-21.485,31.9" fill="none" stroke="#859655" stroke-linecap="round" stroke-miterlimit="10" stroke-width="1"/>
  </g>
</svg>
